# xmcd
#
# Track frame offsets:
#	182
#	24942
#	49020
#	70020
#	92690
#	114147
#	134487
#	154677
#	174055
#	195740
#	218852
#	240932
#	255840
#
# Disc length: 3768 seconds
#
# Revision: 6
# Processed by: cddbd v1.5.2PL0 Copyright (c) Steve Scherf et al.
# Submitted via: audiograbber 1.83.01
#
DISCID=960eb60d
DTITLE=Tropical Tribute To The Beatles  - The Beatles
DYEAR=1996
DGENRE=Latin
TTITLE0=01 - Tony Vega - Hey Jude
TTITLE1=02 - Tito Nieves - Let It Be
TTITLE2=03 - Guianko - Can't Buy Me Love
TTITLE3=04 - Johnny Rivera - A Hard Day's Night
TTITLE4=05 - Celia Cruz - Obladi Oblada
TTITLE5=06 - Ray Sepulveda - The Fool On The Hill
TTITLE6=07 - Manny Manuel - I Want To Hold Your Hand
TTITLE7=08 - Domingo Quinones - Day Tripper
TTITLE8=09 - Oscar D'Leon - Lady Madonna
TTITLE9=10 - Jesus Enriquez - With A Little Help From My Friends
TTITLE10=11 - Cheo Feliciano - Yesterday
TTITLE11=12 - Jose Alberto - And I Love Her
TTITLE12=13 - All Artists - Come Together
EXTD=
EXTT0=
EXTT1=
EXTT2=
EXTT3=
EXTT4=
EXTT5=
EXTT6=
EXTT7=
EXTT8=
EXTT9=
EXTT10=
EXTT11=
EXTT12=
PLAYORDER=
